<svg xmlns="http://www.w3.org/2000/svg" xmlns:svg="http://www.w3.org/2000/svg" id="svg2" width="3508" height="2480" version="1.1"><metadata id="metadata8"/><g id="layer5" style="display:none"><rect style="color:#000;fill:#00759e;fill-opacity:1;fill-rule:nonzero;stroke:none;stroke-width:8;marker:none;visibility:visible;display:inline;overflow:visible;enable-background:accumulate" id="rect4228" width="178.882" height="180.87" x="1321.245" y="2575.404"/><rect style="color:#000;fill:#013e56;fill-opacity:1;fill-rule:nonzero;stroke:none;stroke-width:8;marker:none;visibility:visible;display:inline;overflow:visible;enable-background:accumulate" id="rect4230" width="178.882" height="180.87" x="1526.463" y="2575.404"/><rect style="color:#000;fill:#ef3543;fill-opacity:1;fill-rule:nonzero;stroke:none;stroke-width:8;marker:none;visibility:visible;display:inline;overflow:visible;enable-background:accumulate" id="rect4232" width="178.882" height="180.87" x="1731.681" y="2575.404"/><rect style="color:#000;fill:#3ba2db;fill-opacity:1;fill-rule:nonzero;stroke:none;stroke-width:8;marker:none;visibility:visible;display:inline;overflow:visible;enable-background:accumulate" id="rect4236" width="178.882" height="180.87" x="1936.899" y="2575.404"/></g><g id="layer1" style="display:inline"><rect style="color:#000;fill:#00759e;fill-opacity:1;fill-rule:nonzero;stroke:none;stroke-width:8;marker:none;visibility:visible;display:inline;overflow:visible;enable-background:accumulate" id="rect3062" width="33.475" height="196.956" x="813.731" y="2074.913"/><path style="color:#000;fill:#00759e;fill-opacity:1;fill-rule:nonzero;stroke:none;stroke-width:8;marker:none;visibility:visible;display:inline;overflow:visible;enable-background:accumulate" id="rect3062-3" d="m 997.90625,2074.875 0,195.9688 33.09375,0 0,-138.4688 97.5625,138.7188 0.2187,-2.3126 0,2.0626 32.4412,0 0,-195.9688 -32.4412,0 0,138.7812 -96.9075,-138.7187 z"/><path style="color:#000;fill:#00759e;fill-opacity:1;fill-rule:nonzero;stroke:none;stroke-width:8;marker:none;visibility:visible;display:inline;overflow:visible;enable-background:accumulate" id="rect3062-5" d="m 1313.4062,2074.6875 0,33.4687 48.6563,0 0,163.7188 33.4687,0 0,-163.7188 48.6563,0 0,-33.4687 -130.7813,0 z"/><path style="color:#000;fill:#00759e;fill-opacity:1;fill-rule:nonzero;stroke:none;stroke-width:8;marker:none;visibility:visible;display:inline;overflow:visible;enable-background:accumulate" id="rect3062-56-2" d="m 1876.1562,2075.0312 0,163.0938 0,29.6875 0,3.0937 105.2813,0 0,-32.7812 -72.4375,0 0,-163.0938 -32.8438,0 z"/><path style="color:#000;fill:#013e56;fill-opacity:1;fill-rule:nonzero;stroke:none;stroke-width:8;marker:none;visibility:visible;display:inline;overflow:visible;enable-background:accumulate" id="rect3062-56-2-9" d="m 2129.9375,2074.9062 0,196.4688 42.1638,0 0,-96.9688 47.4612,96.9063 36.2317,0 44.2259,-95.3125 0,95.375 41.9799,0 0,-196.4688 -41.0662,0 -63.2463,136.7813 -66.9091,-136.7813 z"/><path style="color:#000;fill:#00759e;fill-opacity:1;fill-rule:nonzero;stroke:none;stroke-width:8;marker:none;visibility:visible;display:inline;overflow:visible;enable-background:accumulate" id="rect3062-56-27-0-9" d="m 1679.1345,2157.1333 16.6673,15.8301 -16.6673,15.8301 -85.1983,0 0,-31.6602 z"/><rect style="color:#000;fill:#00759e;fill-opacity:1;fill-rule:nonzero;stroke:none;stroke-width:8;marker:none;visibility:visible;display:inline;overflow:visible;enable-background:accumulate" id="rect3062-56-27-0-9-3" width="32.249" height="130.258" x="2239.026" y="-1724.978" transform="matrix(0,1,-1,0,0,0)"/><rect style="color:#000;fill:#00759e;fill-opacity:1;fill-rule:nonzero;stroke:none;stroke-width:8;marker:none;visibility:visible;display:inline;overflow:visible;enable-background:accumulate" id="rect3062-56-27-0-9-3-6" width="32.249" height="130.258" x="2075.932" y="-1724.978" transform="matrix(0,1,-1,0,0,0)"/><path style="color:#000;fill:#013e56;fill-opacity:1;fill-rule:nonzero;stroke:none;stroke-width:8;marker:none;visibility:visible;display:inline;overflow:visible;enable-background:accumulate" id="path4194" d="m 2693.6541,2187.1057 a 84.343803,84.343803 0 1 1 -168.6876,0 84.343803,84.343803 0 1 1 168.6876,0 z" transform="matrix(1.1412103,0,0,1.1412103,-386.9344,-320.02275)"/><path style="color:#000;fill:#fff;fill-opacity:1;fill-rule:nonzero;stroke:none;stroke-width:8;marker:none;visibility:visible;display:inline;overflow:visible;enable-background:accumulate" id="path4196" d="m 2643.5827,2180.7861 a 55.175915,55.175915 0 1 1 -110.3519,0 55.175915,55.175915 0 1 1 110.3519,0 z" transform="translate(2.4306571,-4.8613142)"/><rect style="color:#000;fill:#013e56;fill-opacity:1;fill-rule:nonzero;stroke:none;stroke-width:8;marker:none;visibility:visible;display:inline;overflow:visible;enable-background:accumulate" id="rect3062-56-27-0-9-3-2" width="40.698" height="96.446" x="-314.477" y="-3492.114" transform="matrix(-0.70710678,0.70710678,-0.70710678,-0.70710678,0,0)"/></g><g id="layer3" style="display:inline"><rect style="color:#000;fill:none;stroke:#013e56;stroke-width:32;stroke-linecap:square;stroke-linejoin:round;stroke-miterlimit:4;stroke-opacity:1;stroke-dasharray:none;stroke-dashoffset:0;marker:none;visibility:visible;display:inline;overflow:visible;enable-background:accumulate" id="rect4876" width="428.962" height="430.382" x="1539.844" y="932.112" rx="174.848" ry="174.848"/><path style="fill:none;stroke:#00759e;stroke-width:32;stroke-linecap:butt;stroke-linejoin:miter;stroke-miterlimit:4;stroke-opacity:1;stroke-dasharray:none" id="path4844" d="m 1201.1529,1107.0755 c 0,-230.78734 179.031,-513.47728 516.7739,-513.47728"/><path style="fill:none;stroke:#ef3543;stroke-width:32;stroke-linecap:butt;stroke-linejoin:round;stroke-miterlimit:4;stroke-opacity:1;stroke-dasharray:none" id="path4842" d="m 2307.2298,1748.3189 c 0,-84.635 -74.25,-167.1027 -167.4173,-170.5743 l -217.51,0 c -27.4347,0 -69.461,-11.9216 -104.6289,-40.8953 -35.1679,-28.9736 -63.4772,-74.3455 -63.4772,-139.2843 -0.3617,-83.3781 -0.1553,-166.7709 -0.1553,-250.1534"/><path style="fill:none;stroke:#3ba2db;stroke-width:32;stroke-linecap:butt;stroke-linejoin:miter;stroke-miterlimit:4;stroke-opacity:1;stroke-dasharray:none;display:inline" id="path4492-7-4" d="m 869.03616,1146.9793 c 99.8419,0 214.87924,0 335.53504,0"/><path style="fill:none;stroke:#00759e;stroke-width:32;stroke-linecap:butt;stroke-linejoin:miter;stroke-miterlimit:4;stroke-opacity:1;stroke-dasharray:none;display:inline" id="path4492-7" d="m 1201.216,1146.9793 c 99.8419,0 214.8793,0 335.5351,0"/><path style="fill:none;stroke:#013e56;stroke-width:32;stroke-linecap:butt;stroke-linejoin:miter;stroke-miterlimit:4;stroke-opacity:1;stroke-dasharray:none;display:inline" id="path4492-5" d="m 1523.3297,1146.9793 c 144.5481,0 297.732,0 442.9065,0"/><path style="fill:none;stroke:#00759e;stroke-width:32;stroke-linecap:butt;stroke-linejoin:miter;stroke-miterlimit:4;stroke-opacity:1;stroke-dasharray:none;display:inline" id="path4492-2" d="m 1964.5585,1150.2172 c 121.8291,0 238.0675,0 338.8905,0"/><path style="fill:none;stroke:#3ba2db;stroke-width:32;stroke-linecap:butt;stroke-linejoin:miter;stroke-miterlimit:4;stroke-opacity:1;stroke-dasharray:none;display:inline" id="path4492-54" d="m 2300.0937,1150.2172 344.7111,0"/><path style="fill:red;stroke:#013e56;stroke-width:32;stroke-linecap:butt;stroke-linejoin:miter;stroke-miterlimit:4;stroke-opacity:1;stroke-dasharray:none;display:inline" id="path4494-4" d="m 1754.0296,1141.7216 0,-215.47787"/><path style="fill:red;stroke:#00759e;stroke-width:32;stroke-linecap:butt;stroke-linejoin:miter;stroke-miterlimit:4;stroke-opacity:1;stroke-dasharray:none;display:inline" id="path4494-3" d="m 1754.0296,916.09 0,-319.00822"/><path style="fill:red;stroke:#3ba2db;stroke-width:32;stroke-linecap:butt;stroke-linejoin:miter;stroke-miterlimit:4;stroke-opacity:1;stroke-dasharray:none;display:inline" id="path4494-9" d="m 1754.0296,588.71325 0,-337.71115"/><path style="fill:none;stroke:#00759e;stroke-width:32;stroke-linecap:butt;stroke-linejoin:miter;stroke-miterlimit:4;stroke-opacity:1;stroke-dasharray:none;display:inline" id="path4844-3" d="m 2306.1795,1107.0755 c 0,-230.78734 -179.031,-513.47728 -516.7739,-513.47728"/></g><g id="layer4" style="display:inline"><path style="color:#000;fill:#ef3543;fill-opacity:1;fill-rule:nonzero;stroke:none;stroke-width:8;marker:none;visibility:visible;display:inline;overflow:visible;enable-background:accumulate" id="path4348" d="m 2373.693,1803.7494 a 57.786533,57.786533 0 1 1 -115.573,0 57.786533,57.786533 0 1 1 115.573,0 z" transform="matrix(0.95940739,0,0,0.95940739,85.711126,62.460118)"/><path style="color:#000;fill:#fff;fill-opacity:1;fill-rule:nonzero;stroke:none;stroke-width:8;marker:none;visibility:visible;display:inline;overflow:visible;enable-background:accumulate" id="path4352" d="m 2319.4073,1785.1545 a 17.997429,17.997429 0 1 1 -35.9948,0 17.997429,17.997429 0 1 1 35.9948,0 z" transform="matrix(1.2964824,0,0,1.2964824,-676.3999,-521.34043)"/><path style="color:#000;fill:#ef3543;fill-opacity:1;fill-rule:nonzero;stroke:none;stroke-width:8;marker:none;visibility:visible;display:inline;overflow:visible;enable-background:accumulate" id="path4348-0" d="m 2373.693,1803.7494 a 57.786533,57.786533 0 1 1 -115.573,0 57.786533,57.786533 0 1 1 115.573,0 z" transform="matrix(0.95940739,0,0,0.95940739,-467.68324,-368.39161)"/><path style="color:#000;fill:#fff;fill-opacity:1;fill-rule:nonzero;stroke:none;stroke-width:8;marker:none;visibility:visible;display:inline;overflow:visible;enable-background:accumulate" id="path4352-2" d="m 2319.4073,1785.1545 a 17.997429,17.997429 0 1 1 -35.9948,0 17.997429,17.997429 0 1 1 35.9948,0 z" transform="matrix(1.2964824,0,0,1.2964824,-1229.7943,-952.19217)"/><path style="color:#000;fill:#013e56;fill-opacity:1;fill-rule:nonzero;stroke:none;stroke-width:8;marker:none;visibility:visible;display:inline;overflow:visible;enable-background:accumulate" id="path4348-7" d="m 2373.693,1803.7494 a 57.786533,57.786533 0 1 1 -115.573,0 57.786533,57.786533 0 1 1 115.573,0 z" transform="matrix(0.95940739,0,0,0.95940739,-467.68324,-583.55116)"/><path style="color:#000;fill:#fff;fill-opacity:1;fill-rule:nonzero;stroke:none;stroke-width:8;marker:none;visibility:visible;display:inline;overflow:visible;enable-background:accumulate" id="path4352-5" d="m 2319.4073,1785.1545 a 17.997429,17.997429 0 1 1 -35.9948,0 17.997429,17.997429 0 1 1 35.9948,0 z" transform="matrix(1.2964824,0,0,1.2964824,-1229.7943,-1167.3518)"/><path style="color:#000;fill:#013e56;fill-opacity:1;fill-rule:nonzero;stroke:none;stroke-width:8;marker:none;visibility:visible;display:inline;overflow:visible;enable-background:accumulate" id="path4348-2" d="m 2373.693,1803.7494 a 57.786533,57.786533 0 1 1 -115.573,0 57.786533,57.786533 0 1 1 115.573,0 z" transform="matrix(0.95940739,0,0,0.95940739,-467.68324,-798.29415)"/><path style="color:#000;fill:#fff;fill-opacity:1;fill-rule:nonzero;stroke:none;stroke-width:8;marker:none;visibility:visible;display:inline;overflow:visible;enable-background:accumulate" id="path4352-28" d="m 2319.4073,1785.1545 a 17.997429,17.997429 0 1 1 -35.9948,0 17.997429,17.997429 0 1 1 35.9948,0 z" transform="matrix(1.2964824,0,0,1.2964824,-1229.7943,-1382.0947)"/><path style="color:#000;fill:#013e56;fill-opacity:1;fill-rule:nonzero;stroke:none;stroke-width:8;marker:none;visibility:visible;display:inline;overflow:visible;enable-background:accumulate" id="path4348-3" d="m 2373.693,1803.7494 a 57.786533,57.786533 0 1 1 -115.573,0 57.786533,57.786533 0 1 1 115.573,0 z" transform="matrix(0.95940739,0,0,0.95940739,-252.84401,-583.55116)"/><path style="color:#000;fill:#fff;fill-opacity:1;fill-rule:nonzero;stroke:none;stroke-width:8;marker:none;visibility:visible;display:inline;overflow:visible;enable-background:accumulate" id="path4352-6" d="m 2319.4073,1785.1545 a 17.997429,17.997429 0 1 1 -35.9948,0 17.997429,17.997429 0 1 1 35.9948,0 z" transform="matrix(1.2964824,0,0,1.2964824,-1014.955,-1167.3518)"/><path style="color:#000;fill:#013e56;fill-opacity:1;fill-rule:nonzero;stroke:none;stroke-width:8;marker:none;visibility:visible;display:inline;overflow:visible;enable-background:accumulate" id="path4348-29" d="m 2373.693,1803.7494 a 57.786533,57.786533 0 1 1 -115.573,0 57.786533,57.786533 0 1 1 115.573,0 z" transform="matrix(0.95940739,0,0,0.95940739,-683.18104,-583.55116)"/><path style="color:#000;fill:#fff;fill-opacity:1;fill-rule:nonzero;stroke:none;stroke-width:8;marker:none;visibility:visible;display:inline;overflow:visible;enable-background:accumulate" id="path4352-3" d="m 2319.4073,1785.1545 a 17.997429,17.997429 0 1 1 -35.9948,0 17.997429,17.997429 0 1 1 35.9948,0 z" transform="matrix(1.2964824,0,0,1.2964824,-1445.2921,-1167.3518)"/><path style="color:#000;fill:#00759e;fill-opacity:1;fill-rule:nonzero;stroke:none;stroke-width:8;marker:none;visibility:visible;display:inline;overflow:visible;enable-background:accumulate" id="path4348-4" d="m 2373.693,1803.7494 a 57.786533,57.786533 0 1 1 -115.573,0 57.786533,57.786533 0 1 1 115.573,0 z" transform="matrix(0.95940739,0,0,0.95940739,-1018.7307,-583.55116)"/><path style="color:#000;fill:#fff;fill-opacity:1;fill-rule:nonzero;stroke:none;stroke-width:8;marker:none;visibility:visible;display:inline;overflow:visible;enable-background:accumulate" id="path4352-7" d="m 2319.4073,1785.1545 a 17.997429,17.997429 0 1 1 -35.9948,0 17.997429,17.997429 0 1 1 35.9948,0 z" transform="matrix(1.2964824,0,0,1.2964824,-1780.8417,-1167.3518)"/><path style="color:#000;fill:#00759e;fill-opacity:1;fill-rule:nonzero;stroke:none;stroke-width:8;marker:none;visibility:visible;display:inline;overflow:visible;enable-background:accumulate" id="path4348-45" d="m 2373.693,1803.7494 a 57.786533,57.786533 0 1 1 -115.573,0 57.786533,57.786533 0 1 1 115.573,0 z" transform="matrix(0.95940739,0,0,0.95940739,-467.68328,-1134.4369)"/><path style="color:#000;fill:#fff;fill-opacity:1;fill-rule:nonzero;stroke:none;stroke-width:8;marker:none;visibility:visible;display:inline;overflow:visible;enable-background:accumulate" id="path4352-0" d="m 2319.4073,1785.1545 a 17.997429,17.997429 0 1 1 -35.9948,0 17.997429,17.997429 0 1 1 35.9948,0 z" transform="matrix(1.2964824,0,0,1.2964824,-1229.7943,-1718.2375)"/><path style="color:#000;fill:#00759e;fill-opacity:1;fill-rule:nonzero;stroke:none;stroke-width:8;marker:none;visibility:visible;display:inline;overflow:visible;enable-background:accumulate" id="path4348-1" d="m 2373.693,1803.7494 a 57.786533,57.786533 0 1 1 -115.573,0 57.786533,57.786533 0 1 1 115.573,0 z" transform="matrix(0.95940739,0,0,0.95940739,83.446846,-580.31323)"/><path style="color:#000;fill:#fff;fill-opacity:1;fill-rule:nonzero;stroke:none;stroke-width:8;marker:none;visibility:visible;display:inline;overflow:visible;enable-background:accumulate" id="path4352-06" d="m 2319.4073,1785.1545 a 17.997429,17.997429 0 1 1 -35.9948,0 17.997429,17.997429 0 1 1 35.9948,0 z" transform="matrix(1.2964824,0,0,1.2964824,-678.66417,-1164.1138)"/><path style="color:#000;fill:#3ba2db;fill-opacity:1;fill-rule:nonzero;stroke:none;stroke-width:8;marker:none;visibility:visible;display:inline;overflow:visible;enable-background:accumulate" id="path4348-06" d="m 2373.693,1803.7494 a 57.786533,57.786533 0 1 1 -115.573,0 57.786533,57.786533 0 1 1 115.573,0 z" transform="matrix(0.95940739,0,0,0.95940739,417.62138,-580.31323)"/><path style="color:#000;fill:#fff;fill-opacity:1;fill-rule:nonzero;stroke:none;stroke-width:8;marker:none;visibility:visible;display:inline;overflow:visible;enable-background:accumulate" id="path4352-1" d="m 2319.4073,1785.1545 a 17.997429,17.997429 0 1 1 -35.9948,0 17.997429,17.997429 0 1 1 35.9948,0 z" transform="matrix(1.2964824,0,0,1.2964824,-344.48964,-1164.1138)"/><path style="color:#000;fill:#3ba2db;fill-opacity:1;fill-rule:nonzero;stroke:none;stroke-width:8;marker:none;visibility:visible;display:inline;overflow:visible;enable-background:accumulate" id="path4348-5" d="m 2373.693,1803.7494 a 57.786533,57.786533 0 1 1 -115.573,0 57.786533,57.786533 0 1 1 115.573,0 z" transform="matrix(0.95940739,0,0,0.95940739,-467.68324,-1470.4396)"/><path style="color:#000;fill:#fff;fill-opacity:1;fill-rule:nonzero;stroke:none;stroke-width:8;marker:none;visibility:visible;display:inline;overflow:visible;enable-background:accumulate" id="path4352-4" d="m 2319.4073,1785.1545 a 17.997429,17.997429 0 1 1 -35.9948,0 17.997429,17.997429 0 1 1 35.9948,0 z" transform="matrix(1.2964824,0,0,1.2964824,-1229.7943,-2054.2402)"/><path style="color:#000;fill:#3ba2db;fill-opacity:1;fill-rule:nonzero;stroke:none;stroke-width:8;marker:none;visibility:visible;display:inline;overflow:visible;enable-background:accumulate" id="path4348-6" d="m 2373.693,1803.7494 a 57.786533,57.786533 0 1 1 -115.573,0 57.786533,57.786533 0 1 1 115.573,0 z" transform="matrix(0.95940739,0,0,0.95940739,-1353.9293,-583.55116)"/><path style="color:#000;fill:#fff;fill-opacity:1;fill-rule:nonzero;stroke:none;stroke-width:8;marker:none;visibility:visible;display:inline;overflow:visible;enable-background:accumulate" id="path4352-56" d="m 2319.4073,1785.1545 a 17.997429,17.997429 0 1 1 -35.9948,0 17.997429,17.997429 0 1 1 35.9948,0 z" transform="matrix(1.2964824,0,0,1.2964824,-2116.0403,-1167.3518)"/></g></svg>